<svg width="325" height="293" viewBox="0 0 325 293" fill="none" xmlns="http://www.w3.org/2000/svg">
<path opacity="0.48" d="M317.021 11.6656H36.0042C32.0636 11.6656 28.8691 15.1792 28.8691 19.5134V211.851C28.8691 216.185 32.0636 219.699 36.0042 219.699H317.021C320.962 219.699 324.156 216.185 324.156 211.851V19.5134C324.156 15.1792 320.962 11.6656 317.021 11.6656Z" fill="#68E1FD"/>
<path opacity="0.18" d="M318.312 234.886C318.097 241.699 316.678 248.635 313.21 254.282C308.841 261.393 301.746 265.795 294.874 269.933L275.39 281.727C266.852 286.9 257.852 292.197 248.118 292.346C241.23 292.46 234.565 289.961 227.94 287.865C197 278.044 164.41 276.668 132.426 279.149C116.043 280.421 99.7405 282.657 83.5093 285.348C70.5227 287.47 54.9372 294.529 43.2261 286.173C30.4708 277.053 22.6421 262.287 15.4353 247.951C9.16128 235.508 2.79953 222.759 0.726783 208.72C-2.46206 187.027 5.17523 164.746 17.1254 147.122C20.7193 141.858 24.6432 136.877 28.8684 132.215V211.86C28.8683 213.945 29.6188 215.946 30.9557 217.424C32.2927 218.903 34.1074 219.74 36.0034 219.751H317.013C318.013 224.718 318.449 229.801 318.312 234.886Z" fill="#68E1FD"/>
<path opacity="0.18" d="M213.319 11.6744H138.182C141.01 9.30927 144.082 7.31967 147.334 5.74685C153.273 2.89708 159.746 1.62564 166.204 1.11707C182.451 -0.171901 198.746 3.77393 213.319 11.6744Z" fill="#68E1FD"/>
<path d="M144.567 193.516C145.299 194.583 146.179 195.518 147.174 196.287C148.653 197.164 150.282 197.696 151.957 197.847L177.404 202.065C177.657 202.084 177.901 202.175 178.113 202.328C178.255 202.497 178.361 202.697 178.426 202.915C178.491 203.132 178.512 203.363 178.488 203.591C178.606 208.831 177.963 214.059 176.583 219.076C176.51 219.486 176.33 219.864 176.065 220.163C175.721 220.419 175.315 220.554 174.901 220.549C166.339 221.347 157.737 221.093 149.151 220.839C147.707 220.861 146.267 220.687 144.862 220.321C142.47 219.585 140.517 217.787 138.715 215.937C134.849 211.982 119.2 196.085 118.251 193.928C116.993 190.838 115.979 187.634 115.221 184.353C114.424 181.196 120.252 180.801 120.132 177.522C120.048 175.254 120.296 172.987 120.866 170.805C121.29 168.86 122.169 167.07 123.417 165.614C124.294 164.738 122.938 158.792 124.15 158.722C125.553 163.983 131.899 174.506 134.657 179.013C137.723 184.038 141.031 188.879 144.567 193.516Z" fill="#68E1FD"/>
<path d="M144.567 193.516C145.299 194.583 146.179 195.518 147.174 196.287C148.653 197.164 150.282 197.696 151.957 197.847L177.404 202.065C177.657 202.084 177.901 202.175 178.113 202.328C178.255 202.497 178.361 202.697 178.426 202.915C178.491 203.132 178.512 203.363 178.488 203.591C178.606 208.831 177.963 214.059 176.583 219.076C176.51 219.486 176.33 219.864 176.065 220.163C175.721 220.419 175.315 220.554 174.901 220.549C166.339 221.347 157.737 221.093 149.151 220.839C147.707 220.861 146.267 220.687 144.862 220.321C142.47 219.585 140.517 217.787 138.715 215.937C134.849 211.982 119.2 196.085 118.251 193.928C116.993 190.838 115.979 187.634 115.221 184.353C114.424 181.196 120.252 180.801 120.132 177.522C120.048 175.254 120.296 172.987 120.866 170.805C121.29 168.86 122.169 167.07 123.417 165.614C124.294 164.738 122.938 158.792 124.15 158.722C125.553 163.983 131.899 174.506 134.657 179.013C137.723 184.038 141.031 188.879 144.567 193.516Z" fill="url(#paint0_linear_147_945)"/>
<path d="M80.1771 149.095C78.4633 150.775 76.8645 152.592 75.3939 154.531C71.8702 159.292 69.5264 164.957 67.342 170.604C61.5303 185.633 56.468 201.706 57.9748 217.954C58.0033 218.931 58.2438 219.887 58.6763 220.742C59.3625 221.709 60.3264 222.392 61.4108 222.68C64.209 223.662 67.1985 223.706 70.1801 223.732C81.6679 223.846 93.1717 223.96 104.652 223.346C106.429 223.25 108.311 223.101 109.786 221.996C110.863 221.089 111.722 219.906 112.289 218.55C115.374 212.166 116.275 204.783 118.667 198.067C121.855 189.298 130.625 181.328 128.775 172.086C120.867 132.846 83.7965 145.473 80.1771 149.095Z" fill="#68E1FD"/>
<path d="M80.1771 149.095C78.4633 150.775 76.8645 152.592 75.3939 154.531C71.8702 159.292 69.5264 164.957 67.342 170.604C61.5303 185.633 56.468 201.706 57.9748 217.954C58.0033 218.931 58.2438 219.887 58.6763 220.742C59.3625 221.709 60.3264 222.392 61.4108 222.68C64.209 223.662 67.1985 223.706 70.1801 223.732C81.6679 223.846 93.1717 223.96 104.652 223.346C106.429 223.25 108.311 223.101 109.786 221.996C110.863 221.089 111.722 219.906 112.289 218.55C115.374 212.166 116.275 204.783 118.667 198.067C121.855 189.298 130.625 181.328 128.775 172.086C120.867 132.846 83.7965 145.473 80.1771 149.095Z" fill="url(#paint1_linear_147_945)"/>
<path d="M132.091 116.59C130.744 123.789 129.333 131.18 125.713 137.38C124.394 139.883 122.485 141.949 120.189 143.36C117.853 144.649 114.887 144.824 112.703 143.246C111.611 142.466 110.415 141.238 109.227 141.817C108.366 142.246 108.087 143.421 107.967 144.447C107.668 146.967 107.7 149.522 108.063 152.032C108.211 152.739 108.249 153.468 108.175 154.189C108.02 154.856 107.693 155.46 107.234 155.926C106.774 156.393 106.201 156.704 105.584 156.82C104.35 157.017 103.092 156.8 101.972 156.197C100.232 155.341 98.7079 154.028 97.535 152.374C96.362 150.72 95.5754 148.775 95.244 146.709C95.0767 145.314 94.9968 143.908 95.0048 142.501C94.8533 136.257 93.9525 130.041 94.1358 123.806C94.3192 117.572 95.7303 111.083 99.5808 106.48C101.805 103.973 104.446 101.96 107.362 100.552C111.706 98.2722 116.553 96.6676 121.305 97.5006C123.196 97.8291 124.999 98.6043 126.591 99.7729C128.184 100.941 129.527 102.476 130.529 104.27C133.016 108.47 133.024 111.6 132.091 116.59Z" fill="#FFDAD2"/>
<path d="M143.962 100.727C144.286 97.8014 143.792 94.8362 142.546 92.2266C141.3 89.617 139.361 87.4867 136.987 86.1191C134.874 84.9616 132.522 84.4706 130.242 83.8042C124.901 82.2258 119.775 79.6128 114.298 79.0516C108.821 78.4904 102.523 80.6037 100.084 86.0664C99.6373 87.0661 99.1988 88.2761 98.2183 88.5392C97.6825 88.6026 97.1407 88.549 96.6238 88.3813C92.9646 87.6711 89.6722 91.1083 88.0219 94.7648C85.3592 100.684 85.2237 107.584 85.8057 114.152C86.3398 120.229 87.7509 126.796 92.1834 130.497C92.6218 130.865 93.2676 131.198 93.6901 130.803C93.8836 130.581 94.0042 130.294 94.0329 129.988C94.4787 127.684 94.6449 125.325 94.5272 122.973C94.4395 121.219 94.1844 119.36 94.5989 117.633C95.0135 115.906 96.3448 114.266 97.9711 114.319C99.4779 114.319 100.69 115.862 101.064 117.475C101.331 119.118 101.274 120.804 100.897 122.421C101.136 123.078 101.973 122.289 102.117 121.605C103.217 116.099 103.464 109.934 106.94 105.822C107.647 106.627 108.162 107.612 108.439 108.689C108.958 108.097 109.619 107.678 110.345 107.48C111.071 107.281 111.833 107.311 112.544 107.567C113.553 108.05 114.48 108.717 115.287 109.54C123.753 116.809 142.184 114.652 143.962 100.727Z" fill="#3F3D56"/>
<path d="M82.6169 158.073C79.9383 160.213 78.6309 163.975 78.5511 167.605C78.4714 171.235 81.9632 194.27 85.2557 200.811C87.8068 205.897 93.1242 219.172 101.2 222.838C103.592 223.925 138.948 223.469 155.355 221.514C155.251 217.243 155.06 212.973 154.804 208.703C154.828 208.14 154.673 207.585 154.366 207.133C153.951 206.66 153.362 203.565 152.772 203.565C143.205 203.608 133.559 206.826 123.992 207.072C122.603 207.171 121.208 207.079 119.839 206.8C118.718 206.493 117.644 206.008 116.65 205.362C109.268 200.767 105.186 191.745 102.3 182.967C100.092 176.198 98.314 169.192 95.1252 162.87C93.9931 160.616 92.9807 158.424 90.7485 157.433C88.1257 156.267 85.0484 156.136 82.6169 158.073Z" fill="#68E1FD"/>
<path d="M82.6169 158.073C79.9383 160.213 78.6309 163.975 78.5511 167.605C78.4714 171.235 81.9632 194.27 85.2557 200.811C87.8068 205.897 93.1242 219.172 101.2 222.838C103.592 223.925 138.948 223.469 155.355 221.514C155.251 217.243 155.06 212.973 154.804 208.703C154.828 208.14 154.673 207.585 154.366 207.133C153.951 206.66 153.362 203.565 152.772 203.565C143.205 203.608 133.559 206.826 123.992 207.072C122.603 207.171 121.208 207.079 119.839 206.8C118.718 206.493 117.644 206.008 116.65 205.362C109.268 200.767 105.186 191.745 102.3 182.967C100.092 176.198 98.314 169.192 95.1252 162.87C93.9931 160.616 92.9807 158.424 90.7485 157.433C88.1257 156.267 85.0484 156.136 82.6169 158.073Z" fill="url(#paint2_linear_147_945)"/>
<path d="M153.951 202.74C158.918 202.223 164.435 203.442 167.584 207.694C167.915 208.082 168.132 208.571 168.206 209.097C168.202 209.571 168.069 210.033 167.823 210.421C165.965 213.815 161.932 214.622 158.543 215.963C156.781 216.658 155.098 217.576 153.529 218.699C152.646 219.47 151.624 220.025 150.531 220.33C148.14 220.725 146.155 218.375 145.071 216.025C143.827 213.394 141.882 207.993 144.273 205.502C146.226 203.529 151.496 202.986 153.951 202.74Z" fill="#FFDAD2"/>
<path d="M195.079 201.39C195.964 201.943 196.724 202.707 197.304 203.626C197.587 204.091 197.755 204.629 197.791 205.187C197.828 205.745 197.731 206.304 197.511 206.809C197.135 207.43 196.622 207.937 196.02 208.282C191.612 211.167 186.206 211.684 181.742 214.42C180.826 215.152 179.776 215.655 178.665 215.893C178.012 215.909 177.364 215.759 176.773 215.455C176.181 215.151 175.661 214.7 175.253 214.139C174.44 213.023 173.816 211.755 173.411 210.395C168.189 195.313 187.57 196.129 195.079 201.39Z" fill="#FFDAD2"/>
<path d="M68.7441 194.656H89.3999V213.315C89.3999 215.059 88.77 216.732 87.6487 217.965C86.5274 219.199 85.0066 219.891 83.4208 219.891H74.7232C73.1375 219.891 71.6167 219.199 70.4954 217.965C69.3741 216.732 68.7441 215.059 68.7441 213.315V194.656Z" fill="white"/>
<path d="M88.0059 199.18H94.264C95.5854 199.18 96.8528 199.758 97.7872 200.785C98.7216 201.813 99.2465 203.207 99.2465 204.661V206.932C99.2465 208.385 98.7216 209.779 97.7872 210.807C96.8528 211.835 95.5854 212.412 94.264 212.412H88.0059V199.18Z" stroke="white" stroke-width="0.86386" stroke-miterlimit="10"/>
<path d="M320.209 219.488H40.4032C37.9552 219.488 35.9707 221.669 35.9707 224.359C35.9707 227.049 37.9552 229.23 40.4032 229.23H320.209C322.657 229.23 324.641 227.049 324.641 224.359C324.641 221.669 322.657 219.488 320.209 219.488Z" fill="#68E1FD"/>
<path d="M110.614 229.379H268.773V289.715H110.614V229.379Z" fill="#68E1FD"/>
<path d="M49.5635 229.379H111.69V289.715H49.5635V229.379Z" fill="#68E1FD"/>
<path d="M111.658 229.379H268.781V289.715H111.658V229.379Z" fill="url(#paint3_linear_147_945)"/>
<path d="M49.5635 229.379H111.69V289.715H49.5635V229.379Z" fill="url(#paint4_linear_147_945)"/>
<path opacity="0.18" d="M324.148 19.5222V57.9282H28.8691V19.5222C28.8691 17.4367 29.6196 15.4361 30.9565 13.9574C32.2935 12.4786 34.1082 11.6421 36.0042 11.6305H317.013C318.909 11.6421 320.724 12.4786 322.061 13.9574C323.398 15.4361 324.148 17.4367 324.148 19.5222Z" fill="#68E1FD"/>
<path d="M156.318 219.322H258.712C261.583 219.322 263.91 216.762 263.91 213.604C263.91 210.447 261.583 207.887 258.712 207.887H156.318C153.448 207.887 151.121 210.447 151.121 213.604C151.121 216.762 153.448 219.322 156.318 219.322Z" fill="#68E1FD"/>
<path d="M156.318 219.322H258.712C261.583 219.322 263.91 216.762 263.91 213.604C263.91 210.447 261.583 207.887 258.712 207.887H156.318C153.448 207.887 151.121 210.447 151.121 213.604C151.121 216.762 153.448 219.322 156.318 219.322Z" fill="url(#paint5_linear_147_945)"/>
<path d="M191.826 219.339H270.407L291.135 161.528C291.41 160.758 291.51 159.925 291.426 159.103C291.342 158.28 291.077 157.492 290.654 156.808C290.23 156.124 289.661 155.563 288.996 155.176C288.331 154.788 287.59 154.585 286.838 154.584H225.174C222.191 154.59 219.278 155.581 216.813 157.429C214.349 159.277 212.445 161.896 211.35 164.948L191.826 219.339Z" fill="#68E1FD"/>
<path d="M195.82 219.4H270.455L290.138 164.483C290.401 163.752 290.497 162.96 290.418 162.179C290.339 161.397 290.087 160.648 289.685 159.998C289.282 159.348 288.741 158.816 288.109 158.448C287.476 158.081 286.772 157.889 286.057 157.889H227.494C224.657 157.888 221.885 158.825 219.539 160.58C217.193 162.335 215.381 164.825 214.34 167.728L195.82 219.4Z" fill="#68E1FD"/>
<path d="M195.82 219.4H270.455L290.138 164.483C290.401 163.752 290.497 162.96 290.418 162.179C290.339 161.397 290.087 160.648 289.685 159.998C289.282 159.348 288.741 158.816 288.109 158.448C287.476 158.081 286.772 157.889 286.057 157.889H227.494C224.657 157.888 221.885 158.825 219.539 160.58C217.193 162.335 215.381 164.825 214.34 167.728L195.82 219.4Z" fill="url(#paint6_linear_147_945)"/>
<path opacity="0.51" d="M169.824 136.442H280.318V143.281H169.824V136.442Z" fill="white"/>
<path d="M169.824 124.736H248.373V131.575H169.824V124.736Z" fill="white"/>
<path d="M259.112 124.736H311.696V131.575H259.112V124.736Z" fill="white"/>
<path d="M230.667 81.4367H311.512V87.5133H230.667V81.4367Z" fill="white"/>
<path opacity="0.51" d="M213.734 92.2307H300.224V98.3073H213.734V92.2307Z" fill="white"/>
<path d="M171.323 81.4367H224.497V87.5133H171.323V81.4367Z" fill="white"/>
<path d="M194.648 102.7H311.512V108.777H194.648V102.7Z" fill="white"/>
<path opacity="0.51" d="M171.323 102.7H188.479V108.777H171.323V102.7Z" fill="white"/>
<path opacity="0.51" d="M234.374 113.494H311.512V119.571H234.374V113.494Z" fill="white"/>
<path d="M171.323 113.494H224.497V119.571H171.323V113.494Z" fill="white"/>
<path d="M171.323 91.9764H205.516V98.053H171.323V91.9764Z" fill="white"/>
<path d="M201.1 60.9797H281.945V67.0563H201.1V60.9797Z" fill="white"/>
<path opacity="0.51" d="M184.165 71.7737H270.655V77.8503H184.165V71.7737Z" fill="white"/>
<path d="M141.762 60.9797H194.936V67.0563H141.762V60.9797Z" fill="white"/>
<path d="M200.381 48.3969H281.226V54.4735H200.381V48.3969Z" fill="white"/>
<path d="M141.045 36.9803H194.219V43.0569H141.045V36.9803Z" fill="white"/>
<path d="M141.045 26.5633H194.219V32.6399H141.045V26.5633Z" fill="white"/>
<path d="M141.762 71.5195H175.954V77.5961H141.762V71.5195Z" fill="white"/>
<defs>
<linearGradient id="paint0_linear_147_945" x1="119.223" y1="183.125" x2="160.184" y2="197.317" gradientUnits="userSpaceOnUse">
<stop offset="0.01"/>
<stop offset="0.12" stop-opacity="0.75"/>
<stop offset="1" stop-opacity="0"/>
</linearGradient>
<linearGradient id="paint1_linear_147_945" x1="98.8797" y1="231.729" x2="84.254" y2="151.535" gradientUnits="userSpaceOnUse">
<stop offset="0.01"/>
<stop offset="0.12" stop-opacity="0.75"/>
<stop offset="1" stop-opacity="0"/>
</linearGradient>
<linearGradient id="paint2_linear_147_945" x1="103.217" y1="227.24" x2="126.634" y2="179.328" gradientUnits="userSpaceOnUse">
<stop offset="0.01"/>
<stop offset="0.12" stop-opacity="0.75"/>
<stop offset="1" stop-opacity="0"/>
</linearGradient>
<linearGradient id="paint3_linear_147_945" x1="209.651" y1="187.729" x2="168.819" y2="312.462" gradientUnits="userSpaceOnUse">
<stop offset="0.01"/>
<stop offset="0.12" stop-opacity="0.75"/>
<stop offset="1" stop-opacity="0"/>
</linearGradient>
<linearGradient id="paint4_linear_147_945" x1="68.011" y1="193.744" x2="107.892" y2="365.693" gradientUnits="userSpaceOnUse">
<stop offset="0.01"/>
<stop offset="0.12" stop-opacity="0.75"/>
<stop offset="1" stop-opacity="0"/>
</linearGradient>
<linearGradient id="paint5_linear_147_945" x1="207.3" y1="224.705" x2="207.869" y2="200.84" gradientUnits="userSpaceOnUse">
<stop offset="0.01"/>
<stop offset="0.12" stop-opacity="0.75"/>
<stop offset="1" stop-opacity="0"/>
</linearGradient>
<linearGradient id="paint6_linear_147_945" x1="241.397" y1="239.454" x2="245.292" y2="149.79" gradientUnits="userSpaceOnUse">
<stop offset="0.01"/>
<stop offset="0.12" stop-opacity="0.75"/>
<stop offset="1" stop-opacity="0"/>
</linearGradient>
</defs>
</svg>
