<svg width="405" height="172" viewBox="0 0 405 172" fill="none" xmlns="http://www.w3.org/2000/svg">
<path d="M62.8551 34.7095L52.1182 29.0447L53.9492 18.735L57.7749 19.5577L56.5205 26.6108L64.5459 30.8445L62.8551 34.7095Z" fill="#F9B117"/>
<path d="M62.8551 34.7095L52.1182 29.0447L53.9492 18.735L57.7749 19.5577L56.5205 26.6108L64.5459 30.8445L62.8551 34.7095Z" stroke="#141414" stroke-width="0.94465" stroke-miterlimit="10"/>
<path d="M55.8669 21.3145C58.5478 21.3145 60.7211 18.9241 60.7211 15.9754C60.7211 13.0267 58.5478 10.6362 55.8669 10.6362C53.186 10.6362 51.0127 13.0267 51.0127 15.9754C51.0127 18.9241 53.186 21.3145 55.8669 21.3145Z" fill="#0E394F"/>
<path d="M55.8669 21.3145C58.5478 21.3145 60.7211 18.9241 60.7211 15.9754C60.7211 13.0267 58.5478 10.6362 55.8669 10.6362C53.186 10.6362 51.0127 13.0267 51.0127 15.9754C51.0127 18.9241 53.186 21.3145 55.8669 21.3145Z" stroke="#141414" stroke-width="0.94465" stroke-miterlimit="10"/>
<path d="M50.0071 45.465C50.6682 42.2307 52.0928 39.2453 54.1375 36.8098C56.1821 34.3743 58.7744 32.5747 61.653 31.5926C64.5316 30.6105 67.5948 30.4806 70.5336 31.2159C73.4725 31.9512 76.1831 33.5257 78.3922 35.7808L87.3605 44.9508L118.153 76.2658L78.0961 89.9779L38.0469 103.69L47.3112 58.5772L50.0071 45.465Z" fill="#FACA3F"/>
<path d="M88.5835 46.0563L48.9238 59.597L49.5316 56.6403C53.6919 55.8089 57.7005 54.234 61.3983 51.9782C68.0181 48.0905 73.3945 42.0633 76.8025 34.7095C77.9252 35.4362 78.9706 36.2985 79.9192 37.2806L88.5835 46.0563Z" fill="#F99F00"/>
<path d="M280.859 154.339H297.269C299.727 154.346 302.162 153.819 304.435 152.79C306.707 151.76 308.773 150.248 310.515 148.34C314.021 144.483 318.778 142.316 323.737 142.316C328.696 142.316 333.453 144.483 336.96 148.34L340.466 152.196C342.207 154.105 344.273 155.617 346.546 156.646C348.819 157.676 351.254 158.202 353.712 158.196H379.081" stroke="#141414" stroke-width="0.94465" stroke-miterlimit="10"/>
<path d="M397.905 150.242C394.118 142.264 387.339 136.282 378.589 136.282C373.7 136.289 368.943 138.034 365.027 141.255C361.112 144.476 358.246 149.002 356.858 154.159C356.643 154.987 356.606 155.858 356.75 156.705C356.894 157.551 357.214 158.349 357.687 159.035C358.159 159.722 358.77 160.278 359.471 160.661C360.173 161.043 360.945 161.24 361.728 161.238H389.552L398.637 160.381" fill="#2C6E9B"/>
<path opacity="0.3" d="M363.957 154.159C363.741 154.986 363.702 155.858 363.845 156.704C363.988 157.55 364.308 158.349 364.779 159.035C365.251 159.722 365.862 160.279 366.563 160.661C367.264 161.043 368.037 161.241 368.819 161.238H361.698C360.915 161.24 360.143 161.043 359.441 160.661C358.74 160.278 358.129 159.722 357.656 159.035C357.184 158.349 356.863 157.551 356.72 156.705C356.576 155.858 356.613 154.987 356.828 154.159C358.218 148.997 361.088 144.467 365.009 141.245C368.931 138.023 373.695 136.282 378.59 136.282C379.785 136.28 380.979 136.383 382.159 136.59C377.927 137.332 373.973 139.375 370.752 142.484C367.531 145.593 365.176 149.64 363.957 154.159Z" fill="#0E3964"/>
<path d="M398.7 157.698C398.733 153.31 397.522 149.02 395.237 145.423C392.951 141.826 389.703 139.101 385.945 137.627C383.056 136.54 379.996 136.106 376.951 136.35C373.905 136.594 370.935 137.512 368.219 139.049C365.504 140.585 363.098 142.708 361.146 145.291C359.194 147.874 357.736 150.864 356.859 154.082C356.635 154.912 356.59 155.789 356.727 156.642C356.865 157.495 357.182 158.3 357.652 158.995C358.123 159.69 358.734 160.254 359.438 160.644C360.141 161.033 360.918 161.236 361.705 161.238H395.498C395.92 161.238 396.338 161.146 396.728 160.968C397.118 160.79 397.472 160.529 397.771 160.201C398.069 159.872 398.305 159.482 398.466 159.052C398.627 158.623 398.709 158.163 398.708 157.698H398.7Z" stroke="#141414" stroke-width="0.94465" stroke-miterlimit="10"/>
<path d="M54.203 123.02L67.2786 118.56L74.978 145.867C75.5166 147.777 75.3432 149.844 74.496 151.614C73.6487 153.384 72.1969 154.711 70.46 155.304C68.7231 155.896 66.8434 155.705 65.2343 154.773C63.6253 153.842 62.4187 152.245 61.88 150.334L54.1807 123.028L54.203 123.02Z" fill="#FBD766"/>
<path d="M101.838 106.036L114.936 101.568L122.635 128.875C123.174 130.785 123 132.853 122.153 134.623C121.306 136.393 119.854 137.72 118.117 138.312C116.38 138.905 114.501 138.714 112.892 137.782C111.282 136.85 110.076 135.253 109.537 133.343L101.838 106.036Z" fill="#FBD766"/>
<path d="M54.203 123.02L67.2786 118.56L74.978 145.867C75.5166 147.777 75.3432 149.844 74.496 151.614C73.6487 153.384 72.1969 154.711 70.46 155.304C68.7231 155.896 66.8434 155.705 65.2343 154.773C63.6253 153.842 62.4187 152.245 61.88 150.334L54.1807 123.028L54.203 123.02Z" stroke="#141414" stroke-width="0.94465" stroke-miterlimit="10"/>
<path d="M101.838 106.036L114.936 101.568L122.635 128.875C123.174 130.785 123 132.853 122.153 134.623C121.306 136.393 119.854 137.72 118.117 138.312C116.38 138.905 114.501 138.714 112.892 137.782C111.282 136.85 110.076 135.253 109.537 133.343L101.838 106.036Z" stroke="#141414" stroke-width="0.94465" stroke-miterlimit="10"/>
<path opacity="0.7" d="M59.0996 129.683L61.6787 138.836" stroke="white" stroke-width="1.32251" stroke-linecap="round" stroke-linejoin="round"/>
<path d="M58.1882 111.008L105.4 94.9038L114.863 128.464C115.409 130.399 115.602 132.433 115.433 134.45C115.264 136.468 114.735 138.428 113.877 140.221C113.019 142.013 111.848 143.602 110.432 144.897C109.015 146.192 107.381 147.167 105.622 147.767L85.1562 154.748C81.6034 155.96 77.7585 155.57 74.4672 153.664C71.176 151.758 68.708 148.491 67.6062 144.584L58.1436 111.023L58.1882 111.008Z" fill="#FACA3F"/>
<path d="M62.3301 125.756L109.542 109.652L111.338 116.02L64.1257 132.125L62.3301 125.756Z" fill="#F7B000"/>
<path d="M58.1882 111.008L105.4 94.9038L114.863 128.464C115.409 130.399 115.602 132.433 115.433 134.45C115.264 136.468 114.735 138.428 113.877 140.221C113.019 142.013 111.848 143.602 110.432 144.897C109.015 146.192 107.381 147.167 105.622 147.767L85.1562 154.748C81.6034 155.96 77.7585 155.57 74.4672 153.664C71.176 151.758 68.708 148.491 67.6062 144.584L58.1436 111.023L58.1882 111.008Z" stroke="#141414" stroke-width="0.94465" stroke-miterlimit="10"/>
<path d="M50.0072 45.465C50.6683 42.2307 52.093 39.2453 54.1376 36.8098C56.1822 34.3743 58.7745 32.5747 61.6532 31.5926C64.5318 30.6105 67.5949 30.4806 70.5338 31.2159C73.4726 31.9512 76.1832 33.5257 78.3923 35.7808L87.3606 44.9508L117.374 76.2658L78.0963 89.9779L38.8262 103.69L47.3113 58.5772L50.0072 45.465Z" stroke="#141414" stroke-width="0.94465" stroke-miterlimit="10"/>
<path d="M98.1027 40.8724L37.4398 61.7234C32.0446 63.5778 29.0377 69.8917 30.7237 75.8259L43.5613 121.01C45.2473 126.944 50.9877 130.251 56.383 128.397L117.046 107.546C122.441 105.692 125.448 99.3778 123.762 93.4436L110.924 48.2595C109.238 42.3253 103.498 39.018 98.1027 40.8724Z" fill="#F9B117"/>
<path opacity="0.5" d="M121.854 89.9693L122.82 93.3973C123.619 96.2316 123.362 99.299 122.106 101.925C120.849 104.551 118.696 106.521 116.12 107.401L55.7651 127.969C53.1872 128.848 50.3974 128.566 48.0087 127.184C45.62 125.802 43.8278 123.433 43.0257 120.599L42.0596 117.171C42.8599 120.005 44.6506 122.373 47.0381 123.755C49.4255 125.137 52.2143 125.42 54.7912 124.541L115.153 103.973C116.433 103.543 117.622 102.838 118.652 101.9C119.683 100.962 120.534 99.8088 121.157 98.5069C121.78 97.2049 122.162 95.7802 122.282 94.3148C122.402 92.8494 122.256 91.3725 121.854 89.9693Z" fill="#E59303"/>
<path d="M98.2764 47.0892L40.5157 66.9426C37.2769 68.0558 35.4719 71.8461 36.484 75.4084L48.5081 117.729C49.5202 121.292 52.9663 123.277 56.205 122.164L113.966 102.311C117.205 101.197 119.01 97.407 117.997 93.8447L105.973 51.5237C104.961 47.9613 101.515 45.976 98.2764 47.0892Z" fill="#0E394F"/>
<path d="M115.387 87.8011L117.093 93.8001C117.33 94.643 117.415 95.5292 117.341 96.4079C117.267 97.2867 117.036 98.1408 116.662 98.9215C116.288 99.7022 115.778 100.394 115.161 100.958C114.543 101.522 113.831 101.946 113.065 102.207L55.601 121.807C54.0522 122.335 52.3762 122.165 50.9414 121.334C49.5066 120.503 48.4305 119.08 47.9496 117.376L46.251 111.377C46.7318 113.078 47.8071 114.5 49.2405 115.329C50.6738 116.158 52.3479 116.327 53.8946 115.799L111.366 96.1911C112.91 95.664 114.201 94.4843 114.955 92.9112C115.709 91.338 115.864 89.5001 115.387 87.8011Z" fill="#062538"/>
<path d="M68.6236 80.5969C68.2323 79.209 66.8922 78.4329 65.6304 78.8633C64.3686 79.2937 63.6629 80.7677 64.0542 82.1555L66.9831 92.5429C67.3744 93.9308 68.7145 94.7069 69.9763 94.2765C71.2381 93.8461 71.9438 92.3721 71.5525 90.9842L68.6236 80.5969Z" fill="#4CF58C"/>
<path d="M85.6842 74.7784C85.2929 73.3906 83.9528 72.6144 82.691 73.0448C81.4291 73.4752 80.7235 74.9492 81.1148 76.3371L84.0436 86.7244C84.4349 88.1123 85.775 88.8885 87.0368 88.4581C88.2986 88.0276 89.0043 86.5537 88.613 85.1658L85.6842 74.7784Z" fill="#4CF58C"/>
<path d="M50.7082 73.2181C51.7685 72.8562 52.3614 71.6174 52.0323 70.4511C51.7033 69.2848 50.5769 68.6327 49.5166 68.9946L41.8443 71.6133C40.7839 71.9753 40.1911 73.2141 40.5201 74.3804C40.8492 75.5467 41.9755 76.1987 43.0359 75.8368L50.7082 73.2181Z" fill="#185472"/>
<path d="M55.3445 71.5265C56.4031 71.5265 57.2612 70.5826 57.2612 69.4183C57.2612 68.2539 56.4031 67.31 55.3445 67.31C54.2859 67.31 53.4277 68.2539 53.4277 69.4183C53.4277 70.5826 54.2859 71.5265 55.3445 71.5265Z" fill="#185472"/>
<path d="M56.3285 56.5714L44.0492 60.7599C43.3052 61.0137 42.8887 61.8809 43.1187 62.6969C43.3488 63.5129 44.1384 63.9686 44.8823 63.7149L57.1617 59.5263C57.9056 59.2726 58.3222 58.4053 58.0921 57.5894C57.862 56.7734 57.0724 56.3176 56.3285 56.5714Z" fill="#FFCB6E"/>
<path d="M60.2295 58.3886C61.0385 58.3886 61.6943 57.6673 61.6943 56.7774C61.6943 55.8876 61.0385 55.1663 60.2295 55.1663C59.4205 55.1663 58.7646 55.8876 58.7646 56.7774C58.7646 57.6673 59.4205 58.3886 60.2295 58.3886Z" fill="#FFCB6E"/>
<path d="M67.3682 39.6565L60.5662 41.9767C60.0976 42.1365 59.8356 42.6839 59.9809 43.1992C60.1262 43.7146 60.6238 44.0028 61.0924 43.843L67.8944 41.5228C68.3629 41.3629 68.625 40.8156 68.4797 40.3002C68.3344 39.7849 67.8367 39.4966 67.3682 39.6565Z" fill="#F7B40D"/>
<path d="M66.5244 36.6651L59.7224 38.9853C59.2539 39.1451 58.9918 39.6925 59.1371 40.2078C59.2824 40.7232 59.7801 41.0114 60.2486 40.8516L67.0506 38.5314C67.5192 38.3715 67.7812 37.8242 67.6359 37.3088C67.4906 36.7935 66.993 36.5053 66.5244 36.6651Z" fill="#F7B40D"/>
<path d="M95.6276 132.905L85.2311 136.451C84.5118 136.697 84.109 137.535 84.3314 138.324C84.5539 139.113 85.3173 139.554 86.0365 139.308L96.433 135.762C97.1523 135.517 97.5551 134.678 97.3327 133.889C97.1102 133.1 96.3468 132.66 95.6276 132.905Z" fill="#F7B40D"/>
<path d="M95.2537 128.555L84.8041 132.146C84.0812 132.395 83.6777 133.239 83.903 134.032C84.1283 134.825 84.897 135.266 85.6199 135.018L96.0695 131.426C96.7924 131.178 97.1959 130.333 96.9706 129.54C96.7453 128.748 95.9766 128.306 95.2537 128.555Z" fill="#F7B40D"/>
<path d="M98.1027 40.8724L37.4398 61.7234C32.0446 63.5778 29.0377 69.8917 30.7237 75.8259L43.5613 121.01C45.2473 126.944 50.9877 130.251 56.383 128.397L117.046 107.546C122.441 105.692 125.448 99.3778 123.762 93.4436L110.924 48.2595C109.238 42.3253 103.498 39.018 98.1027 40.8724Z" stroke="#141414" stroke-width="0.950114" stroke-miterlimit="10"/>
<path opacity="0.2" d="M318.68 162.729C318.68 167.7 226.177 171.728 145.705 171.728C65.232 171.728 0 167.7 0 162.729C0 157.758 65.232 153.731 145.705 153.731C226.177 153.731 318.68 157.758 318.68 162.729Z" fill="#0E394F"/>
<path opacity="0.2" d="M404.537 162.729C404.537 164.743 389.732 166.38 376.853 166.38C363.973 166.38 353.532 164.743 353.532 162.729C353.532 160.715 363.973 159.078 376.853 159.078C389.732 159.078 404.537 160.715 404.537 162.729Z" fill="#0E394F"/>
<path d="M290.442 1.24347H130.393C129.263 1.24514 128.169 1.6851 127.304 2.48603C126.439 3.28696 125.858 4.39761 125.664 5.62277L107.088 139.847C106.97 140.605 107.004 141.381 107.188 142.123C107.371 142.865 107.699 143.553 108.15 144.141C108.6 144.729 109.162 145.201 109.795 145.525C110.429 145.849 111.119 146.017 111.818 146.017H277.983C279.093 146.009 280.166 145.577 281.019 144.796C281.871 144.014 282.451 142.932 282.658 141.732L301.881 16.4725C302.197 14.6201 302.139 12.7138 301.711 10.8887C301.284 9.06354 300.496 7.36424 299.405 5.91114C298.313 4.45803 296.945 3.28667 295.396 2.48005C293.847 1.67342 292.156 1.25126 290.442 1.24347Z" fill="#0E3964"/>
<path d="M290.442 1.24347H130.393C129.263 1.24514 128.169 1.6851 127.304 2.48603C126.439 3.28696 125.858 4.39761 125.664 5.62277L107.088 139.847C106.97 140.605 107.004 141.381 107.188 142.123C107.371 142.865 107.699 143.553 108.15 144.141C108.6 144.729 109.162 145.201 109.795 145.525C110.429 145.849 111.119 146.017 111.818 146.017H277.983C279.093 146.009 280.166 145.577 281.019 144.796C281.871 144.014 282.451 142.932 282.658 141.732L301.881 16.4725C302.197 14.6201 302.139 12.7138 301.711 10.8887C301.284 9.06354 300.496 7.36424 299.405 5.91114C298.313 4.45803 296.945 3.28667 295.396 2.48005C293.847 1.67342 292.156 1.25126 290.442 1.24347Z" stroke="#141414" stroke-width="0.94465" stroke-miterlimit="10"/>
<path d="M290.63 1.24347H123.701C121.968 1.24243 120.291 1.9155 118.967 3.14358C117.642 4.37166 116.755 6.07558 116.462 7.95382L97.2793 146.017H273.488L294.76 6.71974C294.874 6.05205 294.853 5.36477 294.699 4.7069C294.544 4.04903 294.26 3.43677 293.865 2.91377C293.471 2.39077 292.976 1.96991 292.417 1.68119C291.858 1.39248 291.248 1.24302 290.63 1.24347Z" fill="#2C6E9B"/>
<path d="M290.63 1.24347H123.701C121.968 1.24243 120.291 1.9155 118.967 3.14358C117.642 4.37166 116.755 6.07558 116.462 7.95382L97.2793 146.017H273.488L294.76 6.71974C294.874 6.05205 294.853 5.36477 294.699 4.7069C294.544 4.04903 294.26 3.43677 293.865 2.91377C293.471 2.39077 292.976 1.96991 292.417 1.68119C291.858 1.39248 291.248 1.24302 290.63 1.24347Z" stroke="#141414" stroke-width="0.94465" stroke-miterlimit="10"/>
<path d="M286.064 11.5275H124.862L107.853 135.733H267.403L286.064 11.5275Z" fill="#0E394F"/>
<path d="M286.523 11.7161L285.643 16.8581H124.511L125.313 11.7161H286.523Z" fill="#062538"/>
<path d="M129.459 11.5275L112.442 135.733H107.767L124.784 11.5275H129.459Z" fill="#062538"/>
<path d="M147.785 25.2996H139.121L138.015 28.9076H147.357L147.785 25.2996Z" fill="#4CF58C"/>
<path d="M160.251 25.2996H150.808L149.701 28.9076H159.043L160.251 25.2996Z" fill="#4CF58C"/>
<path d="M171.16 25.2996H162.495L162.168 28.9076H169.952L171.16 25.2996Z" fill="#4CF58C"/>
<path d="M178.562 25.2996H175.352L174.245 28.9076H178.133L178.562 25.2996Z" fill="#4CF58C"/>
<path d="M136.487 25.2996H133.276L132.17 28.9076L135.739 29.0276L136.487 25.2996Z" fill="#4CF58C"/>
<path d="M146.227 33.0127H137.562L136.456 36.6207H145.798L146.227 33.0127Z" fill="#4CF58C"/>
<path d="M157.914 33.0127H149.25L148.144 36.6207H157.486L157.914 33.0127Z" fill="#4CF58C"/>
<path d="M169.602 33.0127H160.938L160.61 36.6207H169.173L169.602 33.0127Z" fill="#4CF58C"/>
<path d="M176.225 33.0127H173.015L171.908 36.6207H175.796L176.225 33.0127Z" fill="#4CF58C"/>
<path d="M134.929 33.0127H131.719L130.612 36.6207H134.376L134.929 33.0127Z" fill="#4CF58C"/>
<path d="M21.4817 145.16H199.35V163.158H27.4969C26.0965 163.159 24.7096 162.856 23.4155 162.268C22.1214 161.679 20.9454 160.816 19.9548 159.727C18.9642 158.638 18.1783 157.345 17.6422 155.922C17.106 154.499 16.8301 152.974 16.8301 151.434V150.277C16.8362 148.922 17.3283 147.624 18.1993 146.666C19.0703 145.708 20.2499 145.167 21.4817 145.16Z" fill="#19517F"/>
<path opacity="0.3" d="M199.35 156.302V163.158H27.4892C24.6628 163.155 21.9529 161.919 19.9544 159.721C17.9559 157.523 16.8322 154.542 16.8301 151.434V150.277C16.8267 149.504 16.9867 148.741 17.2976 148.049C17.9773 150.438 19.332 152.526 21.1648 154.01C22.9977 155.495 25.2131 156.297 27.4892 156.302H199.35Z" fill="#0E3964"/>
<path opacity="0.3" d="M275.716 140.018V145.16H97.4189L98.0657 140.018H275.716Z" fill="#0E3964"/>
<path d="M70.7871 145.16H133.9C133.9 147.661 132.997 150.058 131.389 151.826C129.782 153.594 127.602 154.587 125.329 154.587H79.358C78.2324 154.587 77.1179 154.344 76.078 153.87C75.0382 153.396 74.0933 152.702 73.2975 151.826C72.5016 150.951 71.8703 149.912 71.4395 148.768C71.0088 147.624 70.7871 146.398 70.7871 145.16Z" fill="#0E3964"/>
<path d="M70.7871 145.16H133.9C133.9 147.661 132.997 150.058 131.389 151.826C129.782 153.594 127.602 154.587 125.329 154.587H79.358C78.2324 154.587 77.1179 154.344 76.078 153.87C75.0382 153.396 74.0933 152.702 73.2975 151.826C72.5016 150.951 71.8703 149.912 71.4395 148.768C71.0088 147.624 70.7871 146.398 70.7871 145.16Z" stroke="#141414" stroke-width="0.94465" stroke-miterlimit="10"/>
<path d="M285.994 11.5275L267.333 135.733H107.813L283.804 11.5275H285.994Z" fill="#062538"/>
<path d="M292.329 58.6934L293.763 48.5656C293.879 47.7425 293.367 46.9713 292.619 46.8432C291.87 46.715 291.169 47.2784 291.053 48.1015L289.619 58.2292C289.502 59.0524 290.015 59.8235 290.763 59.9517C291.511 60.0798 292.212 59.5165 292.329 58.6934Z" fill="#062C4C"/>
<path d="M295.026 39.6265L296.46 29.4988C296.576 28.6757 296.064 27.9045 295.316 27.7763C294.568 27.6482 293.866 28.2116 293.75 29.0347L292.316 39.1624C292.2 39.9855 292.712 40.7567 293.46 40.8849C294.209 41.013 294.91 40.4496 295.026 39.6265Z" fill="#062C4C"/>
<path d="M104.074 148.366H94.7551C93.9978 148.366 93.3838 149.041 93.3838 149.874C93.3838 150.707 93.9978 151.382 94.7551 151.382H104.074C104.831 151.382 105.445 150.707 105.445 149.874C105.445 149.041 104.831 148.366 104.074 148.366Z" fill="#141414"/>
<path d="M48.6118 145.212H29.6702C28.5256 145.212 27.5977 146.233 27.5977 147.492C27.5977 148.751 28.5256 149.771 29.6702 149.771H48.6118C49.7565 149.771 50.6844 148.751 50.6844 147.492C50.6844 146.233 49.7565 145.212 48.6118 145.212Z" fill="#2C6E9B"/>
<path d="M54.5345 149.771C55.6792 149.771 56.6071 148.751 56.6071 147.492C56.6071 146.233 55.6792 145.212 54.5345 145.212C53.3898 145.212 52.4619 146.233 52.4619 147.492C52.4619 148.751 53.3898 149.771 54.5345 149.771Z" fill="#2C6E9B"/>
<path d="M108.833 77.4931L105.909 98.0772C105.732 99.3211 106.506 100.487 107.637 100.681C108.768 100.876 109.828 100.025 110.004 98.781L112.928 78.1969C113.105 76.953 112.331 75.7871 111.2 75.5927C110.069 75.3984 109.009 76.2492 108.833 77.4931Z" fill="#4D9AC4"/>
<path d="M111.787 73.6862C112.932 73.6862 113.86 72.6656 113.86 71.4065C113.86 70.1475 112.932 69.1269 111.787 69.1269C110.643 69.1269 109.715 70.1475 109.715 71.4065C109.715 72.6656 110.643 73.6862 111.787 73.6862Z" fill="#4D9AC4"/>
<path d="M147.566 3.80592H128.624C127.48 3.80592 126.552 4.82654 126.552 6.08555C126.552 7.34456 127.48 8.36519 128.624 8.36519H147.566C148.711 8.36519 149.639 7.34456 149.639 6.08555C149.639 4.82654 148.711 3.80592 147.566 3.80592Z" fill="#4D9AC4"/>
<path d="M153.489 8.36519C154.633 8.36519 155.561 7.34456 155.561 6.08555C155.561 4.82654 154.633 3.80592 153.489 3.80592C152.344 3.80592 151.416 4.82654 151.416 6.08555C151.416 7.34456 152.344 8.36519 153.489 8.36519Z" fill="#4D9AC4"/>
<path d="M191.558 8.89654C192.849 8.89654 193.896 7.74545 193.896 6.32552C193.896 4.90558 192.849 3.7545 191.558 3.7545C190.267 3.7545 189.221 4.90558 189.221 6.32552C189.221 7.74545 190.267 8.89654 191.558 8.89654Z" fill="#F95D5D"/>
<path d="M55.7646 140.875H73.6855V145.16H55.7646V140.875Z" fill="#033156"/>
<path d="M28.7129 140.875H46.6338V145.16H28.7129V140.875Z" fill="#033156"/>
<path d="M82.8096 140.875H100.73V145.16H82.8096V140.875Z" fill="#033156"/>
<path d="M109.862 140.875H127.783V145.16H109.862V140.875Z" fill="#033156"/>
<path d="M136.908 140.875H154.829V145.16H136.908V140.875Z" fill="#033156"/>
<path d="M163.961 140.875H181.882V145.16H163.961V140.875Z" fill="#033156"/>
<path d="M191.005 140.875H208.926V145.16H191.005V140.875Z" fill="#033156"/>
<path d="M245.321 140.875H263.242V145.16H245.321V140.875Z" fill="#033156"/>
<path d="M218.159 141.004H236.08V145.289H218.159V141.004Z" fill="#033156"/>
<path d="M55.7656 140.875H73.6865V145.16H55.7656V140.875Z" stroke="#141414" stroke-width="0.94465" stroke-miterlimit="10"/>
<path d="M28.7129 140.875H46.6338V145.16H28.7129V140.875Z" stroke="#141414" stroke-width="0.94465" stroke-miterlimit="10"/>
<path d="M82.8105 140.875H100.731V145.16H82.8105V140.875Z" stroke="#141414" stroke-width="0.94465" stroke-miterlimit="10"/>
<path d="M109.863 140.875H127.784V145.16H109.863V140.875Z" stroke="#141414" stroke-width="0.94465" stroke-miterlimit="10"/>
<path d="M136.908 140.875H154.829V145.16H136.908V140.875Z" stroke="#141414" stroke-width="0.94465" stroke-miterlimit="10"/>
<path d="M163.961 140.875H181.882V145.16H163.961V140.875Z" stroke="#141414" stroke-width="0.94465" stroke-miterlimit="10"/>
<path d="M191.005 140.875H208.926V145.16H191.005V140.875Z" stroke="#141414" stroke-width="0.94465" stroke-miterlimit="10"/>
<path d="M245.321 140.875H263.242V145.16H245.321V140.875Z" stroke="#141414" stroke-width="0.94465" stroke-miterlimit="10"/>
<path d="M218.16 141.004H236.081V145.289H218.16V141.004Z" stroke="#141414" stroke-width="0.94465" stroke-miterlimit="10"/>
<path d="M285.986 11.5275H124.784L107.774 135.733H267.325L285.986 11.5275Z" stroke="#141414" stroke-width="0.94465" stroke-miterlimit="10"/>
<path d="M263.896 25.7281H196.888C195.295 25.7253 193.755 26.3521 192.548 27.4943C191.341 28.6364 190.547 30.2178 190.312 31.95L183.806 79.4281C183.663 80.4688 183.727 81.531 183.992 82.5421C184.257 83.5533 184.717 84.4896 185.342 85.287C185.966 86.0844 186.74 86.7241 187.609 87.1625C188.479 87.6008 189.425 87.8274 190.382 87.8268H256.79C258.367 87.8296 259.893 87.2157 261.097 86.0948C262.3 84.9739 263.102 83.4189 263.359 81.7077L270.496 34.2296C270.654 33.1792 270.601 32.1035 270.341 31.0778C270.082 30.0521 269.621 29.1011 268.993 28.2914C268.364 27.4817 267.583 26.8328 266.702 26.39C265.822 25.9473 264.864 25.7214 263.896 25.7281Z" fill="white"/>
<path d="M270.371 34.2382L263.242 81.7077C262.984 83.4167 262.183 84.9695 260.981 86.09C259.78 87.2104 258.256 87.8258 256.681 87.8267H190.28C188.762 87.8264 187.288 87.2551 186.105 86.2077C184.922 85.1603 184.1 83.6996 183.774 82.0677L263.608 25.7281H263.818C264.783 25.7301 265.735 25.9627 266.61 26.4097C267.484 26.8567 268.26 27.5074 268.884 28.3169C269.507 29.1263 269.963 30.0751 270.22 31.0975C270.476 32.12 270.528 33.1916 270.371 34.2382Z" fill="#F4F3F2"/>
<path d="M21.4817 145.16H199.35V163.158H27.4969C26.0965 163.159 24.7096 162.856 23.4155 162.268C22.1214 161.679 20.9454 160.816 19.9548 159.727C18.9642 158.638 18.1783 157.345 17.6422 155.922C17.106 154.499 16.8301 152.974 16.8301 151.434V150.277C16.8362 148.922 17.3283 147.624 18.1993 146.666C19.0703 145.708 20.2499 145.167 21.4817 145.16Z" stroke="#141414" stroke-width="0.94465" stroke-miterlimit="10"/>
<path d="M281.553 145.16H191.17C186.651 145.16 182.988 149.189 182.988 154.159C182.988 159.129 186.651 163.158 191.17 163.158H281.553C286.071 163.158 289.734 159.129 289.734 154.159C289.734 149.189 286.071 145.16 281.553 145.16Z" fill="#0E3964"/>
<path d="M279.012 152.651H269.694C268.936 152.651 268.322 153.326 268.322 154.159C268.322 154.992 268.936 155.667 269.694 155.667H279.012C279.77 155.667 280.384 154.992 280.384 154.159C280.384 153.326 279.77 152.651 279.012 152.651Z" fill="#141414"/>
<path d="M261.467 152.651H252.148C251.39 152.651 250.776 153.326 250.776 154.159C250.776 154.992 251.39 155.667 252.148 155.667H261.467C262.224 155.667 262.838 154.992 262.838 154.159C262.838 153.326 262.224 152.651 261.467 152.651Z" fill="#141414"/>
<path d="M281.553 145.16H191.17C186.651 145.16 182.988 149.189 182.988 154.159C182.988 159.129 186.651 163.158 191.17 163.158H281.553C286.071 163.158 289.734 159.129 289.734 154.159C289.734 149.189 286.071 145.16 281.553 145.16Z" stroke="#141414" stroke-width="0.94465" stroke-miterlimit="10"/>
<path d="M50.9492 51.1126L51.6271 47.3161" stroke="white" stroke-width="0.472325" stroke-linecap="round" stroke-linejoin="round"/>
<path d="M51.8453 46.4248C52.1208 46.4248 52.344 46.1792 52.344 45.8763C52.344 45.5734 52.1208 45.3278 51.8453 45.3278C51.5699 45.3278 51.3467 45.5734 51.3467 45.8763C51.3467 46.1792 51.5699 46.4248 51.8453 46.4248Z" fill="white"/>
<path d="M84.1504 51.8497L97.5988 47.2561C99.1394 46.7491 100.799 46.9298 102.22 47.759C103.64 48.5883 104.706 49.9993 105.188 51.6868L108.46 63.3078" stroke="#141414" stroke-width="0.94465" stroke-linecap="round" stroke-linejoin="round"/>
<path d="M69.6738 56.7774L78.5797 53.7351" stroke="#141414" stroke-width="0.94465" stroke-linecap="round" stroke-linejoin="round"/>
<path d="M102.344 105.858L55.5939 121.807C54.0451 122.335 52.3691 122.165 50.9343 121.334C49.4996 120.503 48.4234 119.08 47.9425 117.376L36.0758 75.2802C35.5959 73.5766 35.7506 71.7332 36.506 70.1551C37.2614 68.577 38.5556 67.3934 40.1041 66.8644L64.9518 58.3886" stroke="#141414" stroke-width="0.94465" stroke-linecap="round" stroke-linejoin="round"/>
<path d="M206.783 65.8617H198.119L197.013 69.4783H206.355L206.783 65.8617Z" fill="#FBD766"/>
<path d="M219.25 65.8617H209.807L208.708 69.4783H218.042L219.25 65.8617Z" fill="#FBD766"/>
<path d="M230.159 65.8617H221.494L221.175 69.4783H228.951L230.159 65.8617Z" fill="#FBD766"/>
<path d="M237.561 65.8617H234.351L233.252 69.4783H237.132L237.561 65.8617Z" fill="#FBD766"/>
<path d="M195.486 65.8617H192.275L191.169 69.4783L194.738 69.5897L195.486 65.8617Z" fill="#FBD766"/>
<path d="M205.225 73.5747H196.561L195.454 77.1913H204.796L205.225 73.5747Z" fill="#FBD766"/>
<path d="M216.912 73.5747H208.248L207.149 77.1913H216.484L216.912 73.5747Z" fill="#FBD766"/>
<path d="M228.6 73.5747H219.936L219.616 77.1913H228.171L228.6 73.5747Z" fill="#FBD766"/>
<path d="M235.223 73.5747H232.013L230.914 77.1913H234.794L235.223 73.5747Z" fill="#FBD766"/>
<path d="M193.928 73.5747H190.718L189.611 77.1913H193.375L193.928 73.5747Z" fill="#FBD766"/>
<path d="M255.165 1.24362H188.156C186.564 1.2408 185.024 1.86763 183.817 3.00978C182.609 4.15193 181.816 5.7333 181.58 7.46548L175.074 54.9436C174.932 55.9842 174.995 57.0464 175.26 58.0576C175.525 59.0688 175.986 60.0051 176.61 60.8025C177.235 61.5999 178.008 62.2396 178.878 62.6779C179.748 63.1163 180.693 63.3429 181.65 63.3423H248.059C249.636 63.3451 251.162 62.7312 252.365 61.6103C253.569 60.4894 254.37 58.9344 254.627 57.2232L261.764 9.74512C261.922 8.69465 261.869 7.61896 261.61 6.59326C261.35 5.56756 260.89 4.6166 260.261 3.8069C259.633 2.99719 258.851 2.34828 257.971 1.90552C257.09 1.46277 256.133 1.23687 255.165 1.24362Z" stroke="#141414" stroke-width="0.614023" stroke-miterlimit="10"/>
</svg>
